<?xml version="1.0" standalone="no"?>
<!DOCTYPE svg PUBLIC "-//W3C//DTD SVG 20010904//EN"
 "http://www.w3.org/TR/2001/REC-SVG-20010904/DTD/svg10.dtd">
<svg version="1.0" xmlns="http://www.w3.org/2000/svg"
 width="690.000000pt" height="893.000000pt" viewBox="0 0 690.000000 893.000000"
 preserveAspectRatio="xMidYMid meet">

<g transform="translate(0.000000,893.000000) scale(0.100000,-0.100000)"
fill="#000000" stroke="none">
<path d="M2890 8565 c-14 -7 -46 -19 -72 -26 -26 -7 -45 -16 -42 -20 2 -4 -12
-13 -31 -19 -20 -6 -48 -22 -63 -35 -16 -13 -60 -40 -99 -59 -38 -19 -93 -50
-121 -68 -27 -18 -83 -53 -122 -77 -40 -25 -97 -64 -128 -88 -31 -24 -72 -48
-92 -53 -20 -5 -47 -22 -61 -37 -16 -19 -17 -22 -4 -12 11 9 31 22 45 28 20
10 18 6 -10 -20 -19 -17 -48 -39 -63 -49 -46 -29 -107 -139 -107 -193 0 -11
-16 -55 -35 -98 -20 -43 -38 -95 -41 -115 -2 -21 -8 -42 -13 -48 -5 -6 -21
-47 -36 -90 -20 -58 -23 -81 -15 -86 10 -6 9 -16 -1 -46 -7 -22 -14 -77 -15
-124 -2 -47 -6 -100 -8 -118 -4 -22 0 -42 9 -55 18 -26 20 -236 4 -357 -6 -41
-10 -149 -9 -239 1 -128 -3 -175 -16 -218 -15 -47 -15 -63 -5 -126 7 -40 16
-85 21 -102 8 -29 8 -29 9 9 1 50 15 38 33 -27 12 -45 11 -50 -7 -63 -18 -14
-21 -13 -32 13 -12 27 -12 25 -14 -27 -3 -89 0 -120 23 -213 21 -82 21 -91 6
-130 -26 -70 2 -103 103 -122 35 -7 37 -9 57 -78 12 -40 28 -101 37 -137 59
-241 176 -443 380 -658 101 -107 101 -107 130 -202 37 -126 54 -205 55 -260 1
-58 39 -166 78 -222 17 -23 63 -92 102 -153 39 -60 91 -131 115 -156 40 -41
51 -47 127 -63 51 -11 117 -35 171 -63 l87 -45 44 18 c25 10 42 22 40 26 -3 4
9 14 26 23 16 8 30 20 30 25 0 6 6 10 14 10 7 0 19 6 25 13 6 8 37 20 68 27
58 13 97 36 88 50 -3 4 5 10 18 14 27 7 82 53 82 69 0 7 7 12 15 13 30 2 32 4
20 19 -10 12 -9 16 2 20 8 3 20 5 26 3 5 -2 10 0 11 5 1 4 -2 7 -6 8 -16 2
-43 20 -43 28 0 13 46 19 64 9 9 -5 14 -13 11 -19 -11 -16 12 -10 26 8 12 15
12 16 -4 10 -14 -5 -20 -2 -24 13 -3 11 -9 20 -14 20 -18 0 -3 25 25 43 l30
19 -25 19 -24 18 32 7 c21 4 30 11 26 18 -5 8 -3 8 8 -1 24 -19 66 -4 83 31
14 28 14 31 -2 34 -38 8 -34 23 19 71 30 28 59 51 64 51 13 0 38 57 32 73 -3
7 5 23 18 35 22 21 23 22 28 2 7 -27 37 -26 37 1 0 13 -4 18 -12 13 -6 -4 -4
3 5 17 9 13 17 33 17 45 0 21 28 38 57 35 16 -2 49 31 72 72 12 23 28 34 55
40 24 6 35 14 32 22 -6 16 13 35 34 35 8 0 20 10 25 23 6 13 21 23 38 25 26 3
37 -11 17 -23 -18 -11 -10 -26 10 -20 19 6 20 3 16 -46 -3 -28 -9 -56 -15 -62
-5 -5 -7 -15 -4 -22 5 -16 -11 -51 -41 -84 -11 -13 -16 -22 -10 -20 28 10 189
216 241 309 60 105 89 240 64 288 -5 10 -5 56 0 112 5 52 13 190 18 305 5 116
10 217 12 225 2 9 -4 16 -17 18 -19 3 -20 6 -10 35 6 18 17 42 24 55 7 13 28
64 47 115 52 145 79 182 112 155 17 -14 14 -73 -7 -130 -12 -31 -12 -44 -1
-73 7 -20 11 -64 9 -98 -2 -50 0 -62 13 -65 29 -5 60 31 66 78 3 25 23 79 43
120 20 41 40 89 43 105 5 24 2 21 -13 -13 -11 -24 -26 -50 -35 -58 -8 -8 -19
-22 -23 -31 -14 -23 -32 -6 -32 29 0 19 13 48 36 79 58 79 74 134 74 252 0 83
-5 115 -25 172 -25 72 -33 159 -15 170 6 3 10 17 10 31 0 59 31 5 44 -76 2
-14 4 0 5 31 2 78 -30 177 -69 214 -25 24 -31 37 -29 65 2 36 0 46 -27 162
-13 54 -14 74 -5 96 7 16 10 54 7 88 -2 32 -1 64 4 69 4 6 -1 44 -12 85 -11
47 -15 76 -8 78 13 5 13 38 1 61 -6 10 -11 28 -13 42 -2 13 -9 34 -16 46 -10
17 -9 22 6 28 16 6 16 7 0 19 -9 6 -18 21 -20 31 -1 11 -14 31 -28 45 -16 15
-25 35 -24 50 1 23 -44 98 -118 192 -17 22 -31 54 -34 81 -8 58 -59 109 -127
127 -44 12 -50 17 -75 68 -33 68 -102 123 -127 102 -13 -11 -14 -10 -9 5 6 15
3 17 -14 13 -12 -4 -24 -2 -27 3 -3 5 -39 25 -80 45 -40 21 -87 50 -103 65
-40 38 -101 69 -134 69 -16 0 -36 4 -46 9 -73 40 -145 70 -182 76 -25 4 -57
14 -72 21 -31 16 -72 19 -63 4 3 -5 -23 1 -58 15 -36 13 -67 22 -70 19 -3 -3
-31 2 -63 10 -54 14 -67 13 -154 -4 -66 -13 -100 -16 -113 -9 -10 6 -23 8 -30
6 -7 -2 -30 2 -51 10 -22 7 -47 11 -56 8 -10 -3 -28 -2 -41 3 -50 19 -75 20
-99 7z m905 -725 c18 -1 17 -2 -5 -15 -14 -8 -21 -14 -16 -15 5 0 7 -3 4 -6
-4 -3 -16 0 -28 6 -18 10 -21 9 -18 -2 3 -8 23 -13 57 -14 28 -1 55 -4 59 -8
8 -8 13 -43 13 -93 0 -23 6 -34 20 -38 10 -4 19 -14 19 -23 0 -10 7 -28 17
-41 15 -23 15 -25 -3 -38 -17 -14 -16 -14 14 -8 28 6 32 4 32 -14 0 -12 5 -21
10 -21 6 0 15 -10 20 -22 7 -18 9 -19 9 -5 1 21 17 22 25 1 10 -25 7 -34 -9
-34 -8 0 -15 -4 -15 -10 0 -5 5 -10 11 -10 6 0 9 -6 6 -14 -3 -8 0 -17 8 -20
15 -5 39 -108 32 -137 -3 -10 -1 -22 4 -25 5 -3 7 -9 4 -14 -3 -5 3 -13 12
-19 10 -6 12 -11 6 -11 -7 0 -13 -10 -12 -22 0 -22 1 -22 9 -3 8 19 8 19 17
-4 5 -13 6 -44 2 -70 -5 -35 -3 -48 7 -54 19 -11 18 -28 -1 -21 -11 4 -15 0
-15 -16 0 -20 2 -21 17 -9 14 12 16 12 11 -1 -3 -8 -1 -27 3 -42 6 -21 2 -36
-17 -63 -13 -20 -24 -44 -24 -53 0 -10 -6 -24 -12 -30 -10 -10 -10 -15 2 -22
8 -5 10 -10 5 -10 -6 0 -20 7 -32 15 -19 13 -22 13 -25 0 -3 -13 -6 -13 -31
-1 -26 14 -27 14 -16 -7 8 -18 6 -17 -15 6 -33 36 -49 35 -44 -3 3 -23 1 -29
-8 -26 -8 3 -16 1 -20 -5 -3 -6 3 -13 15 -16 12 -3 21 -9 21 -13 0 -10 -78 -1
-103 12 -9 5 -23 5 -30 1 -13 -9 -69 -13 -167 -13 -36 1 -96 -4 -133 -9 -62
-9 -73 -14 -106 -50 -41 -45 -56 -51 -46 -22 3 11 1 22 -5 26 -6 4 -10 -12
-10 -45 0 -47 -2 -50 -19 -41 -15 9 -20 7 -24 -9 -3 -11 0 -23 5 -27 7 -4 6
-10 -5 -17 -8 -7 -15 -23 -15 -36 0 -14 -10 -52 -22 -84 -21 -59 -25 -111 -16
-256 5 -94 16 -140 42 -182 13 -21 36 -67 50 -103 31 -77 42 -87 50 -45 4 17
9 32 13 34 3 2 21 -9 40 -25 29 -24 35 -37 42 -86 12 -87 2 -93 -131 -84 -96
8 -109 6 -156 -14 -27 -12 -75 -25 -105 -29 -49 -5 -60 -3 -109 25 -130 75
-162 85 -174 54 -3 -10 -19 -15 -46 -15 -37 0 -41 3 -47 30 -3 17 -10 33 -14
36 -8 5 -15 -56 -10 -101 2 -27 41 -82 68 -96 13 -7 23 -19 23 -28 0 -12 3
-12 12 -3 9 9 17 7 35 -10 16 -15 26 -18 35 -11 21 17 66 12 85 -9 17 -19 18
-19 23 -1 5 17 9 18 83 5 59 -11 77 -18 78 -31 0 -11 3 -10 9 5 8 21 25 36 45
41 60 13 85 14 85 4 0 -7 4 -10 8 -7 5 3 28 6 53 7 24 1 56 8 71 16 15 7 35
13 45 13 10 1 30 11 45 23 46 37 54 133 19 220 -18 47 -71 117 -87 117 -8 0
-12 4 -9 10 3 5 0 7 -8 4 -8 -3 -17 2 -21 11 -3 9 -10 14 -15 11 -17 -11 -61
42 -61 73 0 16 -5 33 -10 36 -6 4 -8 10 -5 15 3 5 1 28 -5 52 -9 38 -18 102
-22 148 0 8 -6 21 -12 29 -8 11 -8 13 2 7 8 -5 16 2 23 22 7 20 19 32 37 37
15 4 34 13 44 21 9 9 18 11 22 5 4 -5 24 0 50 14 60 32 75 16 30 -33 -24 -27
-30 -39 -20 -44 19 -11 58 2 52 18 -3 8 -1 14 4 14 6 0 10 -4 10 -9 0 -15 30
-22 48 -11 15 8 14 9 -5 10 -13 0 -23 3 -23 6 0 10 74 74 87 74 7 0 18 -18 24
-40 7 -22 18 -45 24 -50 6 -5 47 -11 89 -12 76 -3 78 -3 104 30 30 36 47 42
39 13 -3 -12 1 -22 9 -25 8 -3 14 -13 14 -22 0 -14 -3 -14 -15 -4 -19 15 -30
7 -21 -15 4 -11 15 -15 33 -13 26 3 28 0 28 -30 l0 -33 45 7 c25 3 54 8 65 12
11 3 23 6 27 7 3 0 10 3 14 8 4 4 16 7 26 7 11 0 32 7 48 15 36 19 41 64 11
94 -14 14 -16 21 -8 25 7 4 2 4 -11 2 -17 -3 -26 2 -34 20 -7 15 -20 24 -35
24 -13 0 -31 4 -41 9 -35 17 -89 34 -184 55 -53 13 -108 30 -123 40 -25 17
-26 18 -8 31 10 8 32 15 48 15 17 0 51 6 76 14 48 15 174 11 195 -5 6 -5 26
-6 44 -2 21 4 31 2 27 -4 -8 -13 20 -53 38 -53 18 0 38 -37 31 -57 -5 -12 -1
-14 19 -11 17 4 25 1 25 -9 0 -7 11 -18 25 -23 14 -5 28 -17 32 -26 4 -11 14
-14 34 -10 18 3 34 0 43 -9 8 -8 19 -15 25 -15 6 0 11 -11 11 -25 0 -14 5 -25
10 -25 6 0 10 5 10 10 0 6 7 10 16 10 10 0 15 -8 14 -22 -1 -13 -1 -25 -1 -28
7 -20 7 -86 0 -90 -5 -3 -2 -18 5 -32 11 -20 11 -28 3 -31 -7 -2 -12 -23 -12
-48 0 -32 -4 -44 -15 -44 -8 -1 -13 -7 -11 -15 8 -34 3 -121 -8 -134 -7 -8
-10 -20 -6 -26 5 -8 -38 -141 -52 -159 -2 -3 -10 5 -19 17 -19 28 -27 28 -60
-3 -15 -14 -34 -24 -42 -23 -10 2 -18 -8 -23 -27 -3 -16 -8 -34 -9 -40 -2 -5
0 -18 5 -29 5 -12 3 -21 -6 -27 -10 -6 -16 1 -24 29 -16 58 -24 24 -10 -43 11
-50 10 -62 -1 -71 -8 -6 -14 -23 -14 -36 0 -14 -7 -31 -14 -38 -8 -6 -20 -37
-26 -68 -6 -31 -15 -66 -19 -77 -5 -11 -17 -56 -26 -100 -10 -44 -27 -98 -38
-120 -10 -21 -28 -64 -38 -94 -17 -49 -18 -57 -4 -78 14 -21 14 -23 0 -23 -8
0 -15 5 -15 11 0 5 -4 7 -10 4 -12 -7 -14 -55 -2 -54 4 0 16 4 27 8 12 5 25 4
33 -2 10 -8 15 -5 19 13 6 22 7 22 21 4 13 -17 14 -15 9 24 -5 45 -3 47 68 43
11 0 14 2 8 5 -7 3 -13 15 -13 26 0 18 -1 18 -16 4 -16 -17 -44 -22 -44 -8 0
5 8 17 18 28 27 30 45 71 39 88 -5 13 50 83 58 74 9 -10 -9 -68 -21 -68 -26 0
-14 -17 16 -23 17 -4 30 -13 30 -20 0 -9 -9 -12 -30 -9 -22 3 -30 0 -30 -11 0
-9 5 -19 10 -22 6 -4 8 -11 4 -16 -3 -5 -10 -7 -15 -4 -5 3 -6 -1 -3 -9 3 -9
11 -16 16 -16 17 0 -3 -64 -27 -85 -22 -21 -44 -92 -25 -80 5 3 7 -1 4 -9 -5
-13 -12 -11 -40 12 -19 15 -34 30 -34 35 0 16 -18 6 -23 -13 -6 -23 -26 -23
-44 0 -9 11 -12 12 -13 2 0 -17 25 -43 34 -35 10 10 7 -11 -4 -27 -9 -13 -12
-12 -25 4 -8 11 -15 25 -15 31 0 7 -7 12 -15 12 -21 0 -19 -20 4 -34 28 -17
14 -68 -18 -67 -14 0 -20 -4 -17 -13 3 -7 -1 -13 -8 -13 -17 0 -32 53 -17 58
6 2 11 11 11 20 -1 15 -2 15 -11 -1 -6 -9 -14 -15 -20 -12 -5 4 -9 -3 -9 -14
0 -12 5 -21 10 -21 6 0 4 -13 -5 -30 -9 -16 -22 -30 -29 -30 -18 0 -27 -25
-19 -47 6 -15 4 -16 -8 -6 -11 9 -21 5 -49 -18 -26 -22 -30 -29 -16 -29 13 0
16 -5 11 -17 -3 -10 -9 -30 -12 -45 -7 -37 -27 -35 -47 5 l-17 32 5 -32 c4
-24 2 -33 -8 -33 -16 0 -30 -28 -27 -50 2 -8 0 -12 -4 -8 -9 8 -65 -29 -65
-42 0 -5 8 -6 18 -3 14 6 15 4 5 -9 -7 -8 -12 -17 -10 -19 1 -2 -3 1 -9 8 -13
15 -44 17 -44 4 0 -6 5 -13 10 -16 16 -10 11 -28 -6 -21 -24 9 -11 -17 14 -29
23 -10 29 -30 12 -40 -5 -3 -10 0 -10 7 0 7 -11 18 -24 24 -19 9 -27 7 -47 -9
-13 -10 -24 -23 -24 -28 0 -4 -9 -15 -20 -23 -17 -12 -21 -12 -33 3 -12 14
-13 14 -9 -6 4 -20 2 -21 -23 -16 -21 4 -31 0 -38 -13 -7 -14 -20 -19 -46 -18
-20 1 -39 4 -43 8 -11 11 -23 7 -23 -8 0 -25 -104 -38 -112 -14 -3 9 -11 9
-34 0 -32 -14 -75 -4 -89 18 -4 7 -18 9 -31 6 -20 -5 -35 4 -85 54 -34 34 -63
59 -66 56 -9 -8 -33 21 -33 39 0 11 -5 15 -14 12 -9 -4 -16 4 -20 24 -3 16
-12 29 -20 29 -14 0 -18 8 -30 63 -4 15 -13 27 -21 27 -8 0 -18 12 -21 26 -4
16 -12 23 -20 20 -9 -3 -16 4 -21 22 -7 27 -10 32 -56 82 -15 16 -27 37 -27
46 0 9 -8 24 -18 33 -38 34 -82 106 -82 133 0 16 -5 28 -13 28 -14 0 -57 52
-57 68 0 21 -64 132 -77 132 -7 0 -12 3 -11 8 2 4 -10 33 -25 64 -28 57 -42
154 -25 165 5 3 1 15 -10 27 -22 24 -44 84 -36 97 3 5 -2 17 -11 26 -11 10
-14 24 -11 39 4 14 2 24 -4 24 -5 0 -10 7 -10 15 0 8 -4 15 -10 15 -5 0 -10
22 -10 48 0 36 -5 54 -20 67 -21 19 -27 55 -10 55 6 0 10 16 10 35 0 19 -4 35
-10 35 -5 0 -10 -4 -10 -10 0 -5 -4 -10 -9 -10 -5 0 -6 20 -4 44 5 45 -11 72
-28 45 -11 -18 -29 31 -29 81 0 23 -5 40 -14 43 -22 9 -16 272 7 295 16 15 19
15 47 -2 17 -9 47 -35 68 -57 35 -38 40 -40 115 -46 55 -4 74 -9 63 -15 -34
-19 -12 -27 75 -27 73 0 108 6 179 29 88 29 176 69 154 70 -6 0 -33 -9 -58
-21 -28 -12 -54 -18 -64 -13 -25 11 -34 11 -67 2 -16 -5 -55 -11 -85 -13 -51
-5 -56 -3 -56 15 0 22 12 27 19 8 3 -10 8 -10 22 2 9 8 25 15 34 15 9 1 28 2
44 3 30 2 35 16 12 38 -11 12 -19 13 -36 3 -15 -7 -19 -8 -15 0 5 7 -5 11 -27
11 -42 0 -45 3 -39 41 7 45 26 46 69 1 l38 -40 73 13 c81 14 83 14 98 58 12
37 26 43 47 22 9 -8 21 -15 28 -15 8 0 5 -7 -6 -20 -18 -20 -17 -20 23 -20 54
0 60 14 21 49 -43 40 -35 57 16 31 21 -11 49 -20 61 -20 12 0 27 -7 35 -16 12
-14 14 -14 25 1 11 15 13 15 23 -4 6 -11 11 -31 11 -46 0 -15 4 -24 10 -20 19
12 11 98 -15 150 -32 67 -42 78 -98 107 -38 21 -44 27 -30 33 16 6 16 8 -4 17
-12 6 -23 19 -25 30 -2 13 -27 30 -83 55 -88 39 -145 44 -297 31 -55 -5 -78
-4 -78 4 0 7 -15 9 -45 5 -25 -4 -47 -2 -50 3 -3 6 2 10 12 11 15 0 14 2 -4 9
-15 6 -21 15 -17 25 3 8 3 22 0 32 -6 14 -8 14 -20 -3 -8 -10 -17 -16 -21 -13
-7 8 -7 16 1 134 8 122 7 147 -8 156 -8 5 -9 12 -2 21 6 7 10 47 9 88 -1 80 9
110 37 110 10 0 18 7 18 15 0 8 5 15 10 15 6 0 10 10 10 23 0 12 7 33 16 45 8
12 13 26 10 31 -4 5 -2 21 4 35 7 19 14 24 26 19 16 -6 16 -7 -2 -14 -10 -4
-14 -8 -7 -8 6 -1 19 2 27 5 15 6 15 8 -1 20 -17 12 -17 13 5 14 12 0 22 4 22
9 0 5 9 11 20 14 11 3 18 1 14 -4 -3 -5 -1 -9 3 -9 14 0 68 54 77 75 6 16 9
17 16 5 9 -13 10 -13 10 0 0 9 16 24 35 34 19 10 48 34 66 53 36 40 48 38 24
-4 -17 -27 -17 -28 1 -8 58 62 158 98 272 96 46 0 71 3 67 9 -8 13 11 13 37
-1 14 -8 23 -8 31 0 6 6 28 11 48 11 20 0 47 8 59 18 19 15 32 17 89 10 90
-10 267 9 307 33 17 11 41 19 53 19 11 0 21 4 21 9 0 5 27 12 60 16 33 4 60
11 60 16 0 5 15 0 33 -11 17 -11 41 -20 52 -20z m-1585 -544 c-14 -14 -22 -2
-14 18 5 14 9 15 15 4 4 -7 4 -17 -1 -22z m1910 -436 c0 -5 -4 -10 -10 -10 -5
0 -10 5 -10 10 0 6 5 10 10 10 6 0 10 -4 10 -10z m-700 -200 c0 -5 -4 -10 -10
-10 -5 0 -10 5 -10 10 0 6 5 10 10 10 6 0 10 -4 10 -10z m-1064 -140 c41 0
101 -16 118 -31 10 -9 -108 -45 -181 -54 -40 -5 -53 -3 -60 8 -4 8 -19 17 -33
19 -37 5 -34 42 3 46 16 2 30 9 33 17 4 9 15 10 42 4 20 -5 55 -9 78 -9z
m1392 -27 c-16 -2 -40 -2 -55 0 -16 2 -3 4 27 4 30 0 43 -2 28 -4z m-1147 -57
c13 -8 -8 -11 -89 -12 -79 -1 -101 1 -87 9 49 27 139 29 176 3z m1123 8 c22
-9 20 -24 -3 -24 -21 0 -34 13 -24 24 8 7 8 7 27 0z m-1171 -51 c11 -10 -13
-32 -29 -26 -20 8 -17 33 4 33 10 0 22 -3 25 -7z m1190 -40 c-7 -2 -21 -2 -30
0 -10 3 -4 5 12 5 17 0 24 -2 18 -5z m1229 -80 c77 -85 75 -258 -4 -348 -31
-36 -31 -36 -46 -14 -11 16 -12 26 -3 46 26 58 -25 89 -54 33 -20 -38 -31 -38
-39 1 -12 61 -8 77 19 77 41 0 40 -7 35 137 -3 97 -4 95 33 95 23 0 41 -8 59
-27z m-3212 -87 c0 -8 -4 -18 -10 -21 -5 -3 -10 3 -10 14 0 12 5 21 10 21 6 0
10 -6 10 -14z m2550 -462 c0 -8 -4 -14 -9 -14 -11 0 -22 26 -14 34 9 9 23 -3
23 -20z m-20 -33 c0 -6 -4 -13 -10 -16 -5 -3 -10 1 -10 9 0 9 5 16 10 16 6 0
10 -4 10 -9z m-120 -485 c0 -3 -4 -8 -10 -11 -5 -3 -10 -1 -10 4 0 6 5 11 10
11 6 0 10 -2 10 -4z m80 -126 c0 -5 -5 -10 -11 -10 -5 0 -7 5 -4 10 3 6 8 10
11 10 2 0 4 -4 4 -10z m-45 -150 c3 -5 2 -10 -4 -10 -5 0 -13 5 -16 10 -3 6
-2 10 4 10 5 0 13 -4 16 -10z m-10 -30 c3 -5 -1 -10 -9 -10 -9 0 -16 5 -16 10
0 6 4 10 9 10 6 0 13 -4 16 -10z m-78 -92 c-3 -8 -6 -5 -6 6 -1 11 2 17 5 13
3 -3 4 -12 1 -19z m-77 -48 c0 -5 -2 -10 -4 -10 -3 0 -8 5 -11 10 -3 6 -1 10
4 10 6 0 11 -4 11 -10z m30 -26 c0 -17 -15 -31 -30 -27 -24 6 -16 29 10 29 11
0 20 -1 20 -2z m-78 -31 c4 -50 3 -71 -3 -67 -4 2 -9 -2 -12 -8 -2 -7 -8 -10
-12 -6 -4 4 -2 14 5 23 7 8 10 28 8 45 -3 16 -1 30 4 30 4 0 9 -8 10 -17z
m-47 -52 c-3 -6 -11 -11 -16 -11 -5 0 -4 6 3 14 14 16 24 13 13 -3z m-525
-971 c0 -5 -2 -10 -4 -10 -3 0 -8 5 -11 10 -3 6 -1 10 4 10 6 0 11 -4 11 -10z
m-47 -27 c-7 -2 -19 -2 -25 0 -7 3 -2 5 12 5 14 0 19 -2 13 -5z m-70 -40 c-7
-2 -21 -2 -30 0 -10 3 -4 5 12 5 17 0 24 -2 18 -5z m-47 -53 c29 0 13 -15 -18
-17 -40 -3 -55 17 -25 32 17 8 23 8 25 -2 2 -7 10 -13 18 -13z m74 20 c-19
-13 -30 -13 -30 0 0 6 10 10 23 10 18 0 19 -2 7 -10z m-126 -61 c-4 -7 0 -9
14 -5 11 4 23 2 26 -3 4 -5 -8 -12 -25 -16 -22 -5 -34 -3 -40 6 -6 10 -9 11
-9 2 0 -7 -6 -13 -12 -13 -7 1 -2 10 11 20 25 22 46 27 35 9z"/>
<path d="M3875 7580 c-3 -5 -1 -10 4 -10 6 0 11 5 11 10 0 6 -2 10 -4 10 -3 0
-8 -4 -11 -10z"/>
<path d="M3920 7510 c0 -5 5 -10 10 -10 6 0 10 5 10 10 0 6 -4 10 -10 10 -5 0
-10 -4 -10 -10z"/>
<path d="M2180 7230 c0 -11 7 -20 15 -20 8 0 15 9 15 20 0 11 -7 20 -15 20 -8
0 -15 -9 -15 -20z"/>
<path d="M3285 6701 c-3 -5 -1 -12 5 -16 5 -3 10 1 10 9 0 18 -6 21 -15 7z"/>
<path d="M3783 6293 c-18 -7 -16 -23 2 -23 8 0 15 7 15 15 0 8 -1 15 -2 14 -2
0 -9 -3 -15 -6z"/>
<path d="M3546 6232 c11 -10 121 -52 137 -52 23 0 -10 18 -71 39 -68 23 -81
25 -66 13z"/>
<path d="M2926 6198 c-3 -7 -7 -31 -10 -53 -3 -22 -8 -56 -11 -75 l-6 -35 17
35 c9 19 18 59 19 88 2 50 -2 65 -9 40z"/>
<path d="M2840 5981 c0 -5 -11 -19 -25 -32 -13 -13 -25 -32 -25 -42 0 -10 -4
-15 -10 -12 -11 7 -11 -8 -1 -45 7 -24 9 -23 29 20 38 81 51 120 41 120 -5 0
-9 -4 -9 -9z"/>
<path d="M2723 5873 c-4 -10 -17 -32 -30 -49 -23 -31 -30 -54 -15 -54 4 0 18
18 32 40 13 22 28 40 32 40 4 0 8 9 8 20 0 25 -18 26 -27 3z"/>
<path d="M4360 5851 c0 -6 5 -13 10 -16 6 -3 10 1 10 9 0 9 -4 16 -10 16 -5 0
-10 -4 -10 -9z"/>
<path d="M2364 5390 c-22 -9 -66 -61 -76 -90 -3 -8 5 -31 18 -50 l24 -34 0 39
c1 35 2 38 13 23 10 -12 26 -16 60 -14 37 2 44 0 36 -10 -8 -10 -3 -17 20 -28
16 -9 36 -25 43 -35 8 -11 20 -21 28 -23 20 -5 70 -63 70 -83 0 -13 6 -16 25
-11 26 7 32 -3 14 -21 -7 -7 -8 -17 -3 -26 13 -23 135 -147 144 -147 5 0 11
-6 13 -12 4 -10 8 -9 17 2 9 11 13 12 17 3 7 -18 23 -16 23 3 0 8 -13 29 -30
46 -16 16 -30 33 -30 38 0 4 -7 10 -15 14 -20 7 -8 36 16 36 23 0 24 8 5 46
-8 16 -18 48 -22 72 -5 35 -4 42 10 42 9 0 28 -7 41 -16 22 -15 26 -15 41 0
17 17 20 17 251 18 87 0 139 -5 155 -13 12 -7 55 -13 93 -14 56 -1 76 2 97 18
46 34 70 10 48 -49 -19 -49 -8 -46 133 35 75 42 104 71 93 90 -10 15 -86 19
-159 9 -40 -6 -80 -10 -89 -9 -70 6 -84 6 -94 -1 -13 -10 -164 -17 -164 -8 0
3 -47 4 -104 4 -63 -1 -127 4 -163 13 -32 8 -65 15 -73 15 -8 0 -40 6 -70 13
-34 8 -108 12 -191 11 l-137 -2 9 24 c5 13 9 25 9 28 0 11 -69 2 -79 -10 -16
-19 -61 -30 -74 -17 -6 6 0 15 16 26 14 9 27 27 30 40 5 26 -4 30 -39 15z
m426 -350 c0 -5 -4 -10 -10 -10 -5 0 -10 5 -10 10 0 6 5 10 10 10 6 0 10 -4
10 -10z"/>
<path d="M2435 5360 c-3 -5 -1 -10 4 -10 6 0 11 5 11 10 0 6 -2 10 -4 10 -3 0
-8 -4 -11 -10z"/>
<path d="M2545 5360 c-3 -5 -1 -10 4 -10 6 0 11 5 11 10 0 6 -2 10 -4 10 -3 0
-8 -4 -11 -10z"/>
<path d="M3790 5321 c0 -6 4 -13 10 -16 6 -3 7 1 4 9 -7 18 -14 21 -14 7z"/>
<path d="M3745 5271 c-3 -5 -2 -12 3 -15 12 -7 52 4 52 15 0 12 -47 12 -55 0z"/>
<path d="M2850 5020 c0 -5 5 -10 10 -10 6 0 10 5 10 10 0 6 -4 10 -10 10 -5 0
-10 -4 -10 -10z"/>
<path d="M3281 5014 c0 -11 3 -14 6 -6 3 7 2 16 -1 19 -3 4 -6 -2 -5 -13z"/>
<path d="M2925 4990 c-3 -6 5 -10 19 -10 14 0 28 5 31 10 3 6 -5 10 -19 10
-14 0 -28 -4 -31 -10z"/>
<path d="M3043 4983 c9 -2 23 -2 30 0 6 3 -1 5 -18 5 -16 0 -22 -2 -12 -5z"/>
<path d="M2860 4890 c0 -5 5 -10 10 -10 6 0 10 5 10 10 0 6 -4 10 -10 10 -5 0
-10 -4 -10 -10z"/>
<path d="M4112 4891 c2 -7 7 -12 11 -12 12 1 9 15 -3 20 -7 2 -11 -2 -8 -8z"/>
<path d="M4076 4865 c4 -8 10 -12 15 -9 14 8 10 24 -6 24 -9 0 -12 -6 -9 -15z"/>
<path d="M3905 4740 c3 -5 11 -10 16 -10 6 0 7 5 4 10 -3 6 -11 10 -16 10 -6
0 -7 -4 -4 -10z"/>
<path d="M3820 4670 c0 -5 5 -10 11 -10 5 0 7 5 4 10 -3 6 -8 10 -11 10 -2 0
-4 -4 -4 -10z"/>
<path d="M5077 6323 c4 -27 7 -86 6 -133 l-1 -85 9 65 c8 59 -4 200 -18 200
-2 0 -1 -21 4 -47z"/>
<path d="M5072 6070 c0 -14 2 -19 5 -12 2 6 2 18 0 25 -3 6 -5 1 -5 -13z"/>
<path d="M5057 5961 c-4 -35 -5 -66 -3 -68 6 -7 19 103 14 119 -3 7 -8 -16
-11 -51z"/>
<path d="M4166 4335 c-3 -8 -1 -15 4 -15 6 0 10 7 10 15 0 8 -2 15 -4 15 -2 0
-6 -7 -10 -15z"/>
<path d="M3960 4112 c0 -4 6 -14 13 -21 7 -8 7 -11 1 -8 -13 7 -50 -41 -39
-51 3 -3 18 6 32 21 32 32 38 67 11 67 -10 0 -18 -4 -18 -8z"/>
<path d="M3810 3890 c0 -5 7 -10 15 -10 8 0 15 5 15 10 0 6 -7 10 -15 10 -8 0
-15 -4 -15 -10z"/>
<path d="M3765 3820 c-3 -5 -2 -10 4 -10 5 0 13 5 16 10 3 6 2 10 -4 10 -5 0
-13 -4 -16 -10z"/>
<path d="M2711 3423 c-103 -109 -146 -185 -157 -275 l-6 -56 38 13 c22 8 47
14 56 15 9 0 29 7 45 17 37 21 76 12 110 -25 53 -58 62 -69 103 -132 24 -36
52 -77 62 -92 10 -15 18 -31 18 -36 0 -11 42 -110 71 -165 10 -21 28 -70 38
-109 17 -64 18 -75 5 -100 -10 -18 -14 -57 -14 -111 1 -57 -7 -113 -24 -185
-14 -57 -26 -113 -26 -126 0 -12 -4 -26 -9 -31 -5 -6 -25 -62 -46 -125 -20
-63 -50 -139 -66 -169 -16 -30 -29 -62 -29 -72 0 -10 -5 -21 -11 -25 -18 -11
-97 -188 -140 -314 -48 -137 -107 -362 -149 -560 -30 -143 -130 -715 -130
-745 0 -18 50 -21 67 -4 8 8 13 8 17 0 5 -8 133 -11 418 -11 367 0 413 2 430
16 16 16 18 16 24 0 7 -19 53 -22 58 -3 2 6 11 73 21 147 9 74 27 205 41 290
54 353 80 545 99 748 19 201 19 189 -6 195 -26 7 -19 32 8 31 18 0 21 8 27 80
9 124 7 158 -10 177 -14 16 -13 19 5 36 20 18 21 30 20 199 -1 189 -20 442
-43 562 -7 40 -11 72 -7 72 4 0 16 19 28 43 25 51 119 162 168 197 19 14 35
29 35 33 0 5 -38 55 -83 110 -88 107 -251 324 -331 441 -9 13 -19 16 -34 12
-32 -10 -27 -34 7 -38 27 -3 28 -5 16 -22 -11 -14 -31 -20 -83 -24 -45 -3 -72
-1 -76 6 -7 11 10 17 69 26 17 2 -6 2 -50 1 -113 -5 -141 -15 -114 -42 8 -8
-1 -12 -32 -15 -34 -3 -43 -1 -47 15 -2 10 -10 16 -17 13 -7 -2 -25 4 -41 15
-16 10 -37 19 -46 19 -10 0 -18 4 -18 10 0 5 -18 19 -40 30 -45 23 -56 54 -15
44 41 -10 28 9 -30 45 -30 18 -55 37 -55 42 0 27 -38 -1 -119 -88z m109 -54
c0 -5 -7 -9 -15 -9 -15 0 -20 12 -9 23 8 8 24 -1 24 -14z m-70 -109 c0 -5 -4
-10 -10 -10 -5 0 -10 5 -10 10 0 6 5 10 10 10 6 0 10 -4 10 -10z m528 -2 c-6
-18 -28 -21 -28 -4 0 9 7 16 16 16 9 0 14 -5 12 -12z m-338 -18 c0 -5 -4 -10
-10 -10 -5 0 -10 5 -10 10 0 6 5 10 10 10 6 0 10 -4 10 -10z m100 -34 c0 -2
-7 -9 -15 -16 -12 -10 -15 -10 -15 4 0 9 7 16 15 16 8 0 15 -2 15 -4z m370
-26 c0 -5 -9 -10 -20 -10 -11 0 -20 5 -20 10 0 6 9 10 20 10 11 0 20 -4 20
-10z m-272 -32 c-3 -7 -13 -15 -24 -17 -16 -3 -17 -1 -5 13 16 19 34 21 29 4z
m417 -57 c3 -5 1 -13 -5 -16 -15 -9 -43 3 -35 15 8 13 32 13 40 1z m-292 -16
c1 -5 -6 -11 -15 -13 -11 -2 -18 3 -18 13 0 17 30 18 33 0z m-313 -14 c0 -6
-4 -13 -10 -16 -5 -3 -10 1 -10 9 0 9 5 16 10 16 6 0 10 -4 10 -9z m72 -63
c-7 -7 -12 -8 -12 -2 0 6 3 14 7 17 3 4 9 5 12 2 2 -3 -1 -11 -7 -17z m370
-20 c-9 -9 -15 -9 -24 0 -10 10 -10 15 2 22 20 12 38 -6 22 -22z m-264 -20
c-6 -18 -28 -21 -28 -4 0 9 7 16 16 16 9 0 14 -5 12 -12z m562 2 c0 -5 -7 -10
-15 -10 -8 0 -15 5 -15 10 0 6 7 10 15 10 8 0 15 -4 15 -10z m-447 -91 c-17
-17 -37 -1 -22 17 8 10 15 12 23 4 7 -7 7 -13 -1 -21z m307 6 c0 -8 -9 -15
-20 -15 -11 0 -20 7 -20 15 0 8 9 15 20 15 11 0 20 -7 20 -15z m-150 -101 c0
-17 -26 -19 -36 -3 -7 12 15 31 28 23 4 -3 8 -12 8 -20z m-280 -13 c0 -6 -4
-13 -10 -16 -5 -3 -10 1 -10 9 0 9 5 16 10 16 6 0 10 -4 10 -9z m536 -18 c-10
-10 -19 5 -10 18 6 11 8 11 12 0 2 -7 1 -15 -2 -18z m-408 -65 c-3 -7 -11 -13
-18 -13 -7 0 -15 6 -17 13 -3 7 4 12 17 12 13 0 20 -5 18 -12z m292 -13 c0 -8
-6 -15 -14 -15 -17 0 -28 14 -19 24 12 12 33 6 33 -9z m-60 -105 c0 -5 -4 -10
-10 -10 -5 0 -10 5 -10 10 0 6 5 10 10 10 6 0 10 -4 10 -10z m-325 -110 c0 -7
-6 -15 -12 -17 -8 -3 -13 4 -13 17 0 13 5 20 13 18 6 -3 12 -11 12 -18z m223
-13 c2 -10 -3 -17 -12 -17 -18 0 -29 16 -21 31 9 14 29 6 33 -14z m202 -23 c0
-8 -7 -14 -15 -14 -15 0 -21 21 -9 33 10 9 24 -2 24 -19z m-333 -100 c8 -20
-13 -42 -27 -28 -12 12 -3 44 11 44 5 0 12 -7 16 -16z m229 -40 c-5 -13 -10
-14 -18 -6 -6 6 -8 18 -4 28 5 13 10 14 18 6 6 -6 8 -18 4 -28z m-356 -98 c0
-8 -4 -18 -10 -21 -5 -3 -10 3 -10 14 0 12 5 21 10 21 6 0 10 -6 10 -14z m235
-26 c0 -22 -29 -18 -33 3 -3 14 1 18 15 15 10 -2 18 -10 18 -18z m225 -21 c0
-20 -15 -26 -25 -9 -9 15 3 43 15 35 5 -3 10 -15 10 -26z m-360 -103 c0 -8 -5
-18 -11 -22 -14 -8 -33 11 -25 25 10 16 36 13 36 -3z m240 -26 c0 -11 -6 -20
-14 -20 -18 0 -29 16 -21 30 11 18 35 11 35 -10z m-374 -116 c-5 -13 -10 -14
-18 -6 -6 6 -8 18 -4 28 5 13 10 14 18 6 6 -6 8 -18 4 -28z m240 -5 c10 -17
-13 -36 -27 -22 -12 12 -4 33 11 33 5 0 12 -5 16 -11z m242 -32 c2 -12 -3 -17
-17 -17 -12 0 -21 6 -21 13 0 31 32 34 38 4z m-578 -83 c0 -8 -4 -14 -10 -14
-5 0 -10 9 -10 21 0 11 5 17 10 14 6 -3 10 -13 10 -21z m196 -29 c-5 -14 -9
-15 -21 -5 -12 10 -13 16 -4 27 15 18 34 1 25 -22z m249 -16 c0 -7 -8 -15 -17
-17 -18 -3 -25 18 -11 32 10 10 28 1 28 -15z m-528 -81 c-3 -8 -6 -5 -6 6 -1
11 2 17 5 13 3 -3 4 -12 1 -19z m153 -18 c0 -11 -7 -20 -15 -20 -8 0 -15 9
-15 20 0 11 7 20 15 20 8 0 15 -9 15 -20z m240 -30 c0 -11 -6 -20 -14 -20 -18
0 -29 16 -21 30 11 18 35 11 35 -10z m240 -25 c0 -19 -20 -29 -32 -17 -8 8 -7
16 2 26 14 17 30 12 30 -9z m-693 -57 c-3 -8 -6 -5 -6 6 -1 11 2 17 5 13 3 -3
4 -12 1 -19z m103 -18 c0 -11 -4 -20 -10 -20 -5 0 -10 9 -10 20 0 11 5 20 10
20 6 0 10 -9 10 -20z m207 -16 c9 -23 -11 -38 -26 -20 -13 16 -7 36 10 36 5 0
12 -7 16 -16z m239 -49 c-5 -14 -9 -15 -21 -5 -12 10 -13 16 -4 27 15 18 34 1
25 -22z m-619 -57 c-3 -7 -5 -2 -5 12 0 14 2 19 5 13 2 -7 2 -19 0 -25z m89
-15 c-10 -10 -19 5 -10 18 6 11 8 11 12 0 2 -7 1 -15 -2 -18z m162 -10 c-5
-25 -28 -28 -28 -4 0 12 6 21 16 21 9 0 14 -7 12 -17z m235 -19 c9 -10 -4 -34
-19 -34 -8 0 -14 9 -14 20 0 19 19 27 33 14z m240 -38 c7 -16 -1 -26 -20 -26
-7 0 -13 9 -13 20 0 23 25 27 33 6z m-707 -63 c-11 -11 -19 6 -11 24 8 17 8
17 12 0 3 -10 2 -21 -1 -24z m120 -20 c-6 -14 -9 -15 -16 -4 -11 19 -1 46 13
32 5 -5 7 -18 3 -28z m209 -14 c0 -7 -8 -15 -17 -17 -18 -3 -25 18 -11 32 10
10 28 1 28 -15z m235 -27 c0 -10 -3 -22 -7 -25 -10 -11 -32 13 -26 29 8 20 33
17 33 -4z m240 -37 c0 -8 -5 -17 -11 -21 -16 -9 -30 18 -17 33 12 15 28 8 28
-12z m-890 -29 c-14 -14 -22 -2 -14 18 5 14 9 15 15 4 4 -7 4 -17 -1 -22z
m117 -18 c-3 -7 -5 -2 -5 12 0 14 2 19 5 13 2 -7 2 -19 0 -25z m173 -18 c0
-11 -7 -20 -15 -20 -8 0 -15 9 -15 20 0 11 7 20 15 20 8 0 15 -9 15 -20z m217
-34 c-4 -9 -11 -16 -17 -16 -11 0 -14 33 -3 44 11 10 26 -11 20 -28z m243 -26
c0 -21 -24 -28 -35 -10 -8 14 3 30 21 30 8 0 14 -9 14 -20z m-714 -57 c-11
-11 -19 6 -11 24 8 17 8 17 12 0 3 -10 2 -21 -1 -24z m144 -8 c0 -8 -4 -15
-10 -15 -5 0 -10 7 -10 15 0 8 5 15 10 15 6 0 10 -7 10 -15z m200 -25 c0 -11
-7 -20 -15 -20 -8 0 -15 9 -15 20 0 11 7 20 15 20 8 0 15 -9 15 -20z m228 -33
c2 -12 -3 -17 -17 -17 -12 0 -21 6 -21 13 0 31 32 34 38 4z m236 -24 c9 -22
-10 -41 -25 -26 -13 13 -5 43 10 43 5 0 12 -8 15 -17z m-894 -23 c0 -11 -4
-20 -10 -20 -5 0 -10 9 -10 20 0 11 5 20 10 20 6 0 10 -9 10 -20z m140 -25 c0
-8 -4 -17 -10 -20 -6 -4 -10 5 -10 20 0 15 4 24 10 20 6 -3 10 -12 10 -20z
m170 -26 c0 -20 -15 -26 -25 -9 -9 15 3 43 15 35 5 -3 10 -15 10 -26z m214
-17 c8 -13 -11 -35 -23 -28 -16 10 -14 36 3 36 8 0 17 -4 20 -8z m229 -28 c9
-10 -4 -34 -19 -34 -8 0 -14 9 -14 20 0 19 19 27 33 14z m-703 -59 c0 -8 -4
-15 -10 -15 -5 0 -10 7 -10 15 0 8 5 15 10 15 6 0 10 -7 10 -15z m150 -25 c0
-11 -4 -20 -10 -20 -5 0 -10 9 -10 20 0 11 5 20 10 20 6 0 10 -9 10 -20z m198
-23 c2 -10 -3 -17 -12 -17 -10 0 -16 9 -16 21 0 24 23 21 28 -4z m217 -28 c0
-7 -8 -15 -17 -17 -18 -3 -25 18 -11 32 10 10 28 1 28 -15z m225 -28 c0 -23
-16 -36 -25 -21 -9 14 1 40 15 40 5 0 10 -9 10 -19z m-880 -15 c0 -8 -4 -17
-9 -21 -12 -7 -24 12 -16 25 9 15 25 12 25 -4z m140 -40 c-14 -14 -24 0 -16
21 6 15 8 15 16 3 6 -9 5 -19 0 -24z m180 -16 c0 -11 -7 -20 -15 -20 -8 0 -15
9 -15 20 0 11 7 20 15 20 8 0 15 -9 15 -20z m199 -37 c-15 -18 -34 -1 -25 22
5 14 9 15 21 5 12 -10 13 -16 4 -27z m231 -17 c0 -8 -5 -18 -11 -22 -14 -8
-33 11 -25 25 10 16 36 13 36 -3z m-700 -46 c0 -11 -4 -20 -10 -20 -5 0 -10 9
-10 20 0 11 5 20 10 20 6 0 10 -9 10 -20z m163 -16 c8 -8 -3 -34 -14 -34 -5 0
-9 9 -9 20 0 19 11 26 23 14z m187 -40 c0 -8 -7 -14 -15 -14 -15 0 -21 21 -9
33 10 9 24 -2 24 -19z m215 -25 c0 -7 -8 -15 -17 -17 -18 -3 -25 18 -11 32 10
10 28 1 28 -15z m220 -19 c10 -16 -16 -43 -28 -31 -11 11 -2 41 12 41 5 0 13
-5 16 -10z m-877 -27 c-4 -22 -22 -20 -26 1 -2 10 3 16 13 16 10 0 15 -7 13
-17z m152 -23 c0 -11 -4 -20 -10 -20 -5 0 -10 9 -10 20 0 11 5 20 10 20 6 0
10 -9 10 -20z m175 -30 c0 -7 -6 -15 -12 -17 -8 -3 -13 4 -13 17 0 13 5 20 13
18 6 -3 12 -11 12 -18z m195 -30 c0 -11 -7 -20 -15 -20 -8 0 -15 9 -15 20 0
11 7 20 15 20 8 0 15 -9 15 -20z m225 -30 c0 -8 -8 -16 -17 -18 -13 -2 -18 3
-18 18 0 15 5 20 18 18 9 -2 17 -10 17 -18z m-693 -52 c-15 -15 -26 -4 -18 18
5 13 9 15 18 6 9 -9 9 -15 0 -24z m168 -19 c0 -21 -16 -26 -23 -6 -6 17 3 38
14 31 5 -3 9 -14 9 -25z m176 -35 c-5 -13 -10 -14 -18 -6 -6 6 -8 18 -4 28 5
13 10 14 18 6 6 -6 8 -18 4 -28z m210 -29 c-5 -14 -9 -15 -21 -5 -12 10 -13
16 -4 27 15 18 34 1 25 -22z"/>
<path d="M2368 2798 c-24 -36 -38 -68 -38 -89 l0 -32 19 22 c11 12 23 22 28
21 12 -3 34 71 31 105 -3 30 -3 29 -40 -27z"/>
</g>
</svg>
